<svg xmlns="http://www.w3.org/2000/svg" width="40" height="40" viewBox="0 0 40 40">
    <g fill="none" fill-rule="evenodd">
        <circle cx="20" cy="20" r="20" fill="#1CACE4"/>
        <path fill="#FFF" fill-rule="nonzero" d="M25.187 9c-1.575 0-3.236.907-4.45 1.57-.29.158-.869.54-1.07.54-.2 0-.777-.381-1.066-.54C17.39 9.908 15.733 9 14.147 9a6.895 6.895 0 0 0-5.182 2.297C7.698 12.701 7 14.547 7 16.497c0 2.727.985 6.595 2.635 10.349.736 1.672 1.52 3.118 2.267 4.183.931 1.326 1.756 1.971 2.521 1.971.368 0 1.038-.148 1.4-1.137.3-.822.57-1.762.855-2.763.65-2.272 1.634-5.706 2.941-5.706h.096c.558 0 1.08.52 1.595 1.588.548 1.136.97 2.664 1.377 4.141.273.99.53 1.925.823 2.737.354.985 1.02 1.132 1.385 1.132.762 0 1.586-.654 2.52-2 .745-1.077 1.53-2.537 2.27-4.224 1.658-3.782 2.648-7.621 2.648-10.27 0-1.95-.697-3.797-1.964-5.2A6.893 6.893 0 0 0 25.187 9zm3.086 17.162c-.692 1.576-1.447 2.985-2.128 3.967-.606.874-.772.967-1.087 1.246-.04.036-.08.02-.097-.027-.274-.755-.523-1.664-.789-2.627-.425-1.542-.865-3.136-1.473-4.396-.797-1.652-1.773-2.455-2.984-2.455h-.096c-1.17 0-2.126.797-2.92 2.436-.606 1.248-1.062 2.843-1.505 4.389-.276.966-.538 1.878-.82 2.65-.012.033-.032.108-.11.085-.19-.056-.481-.394-1.098-1.272-.68-.97-1.433-2.362-2.119-3.92-1.546-3.519-2.507-7.251-2.507-9.741 0-2.936 2.097-5.973 5.607-5.973.906 0 2.109.415 3.216 1.111.159.1.391.277.616.448.092.07.182.139.267.202.275.203.646.47 1.083.724.231.136.442.256.68.355.952.4 1.961.603 3 .603 1.07 0 3.274-.448 3.274-.692 0-.167-2.601.145-4.485-.57-.298-.113-.908-.31-.908-.388 0-.055.056-.105.11-.138.135-.08.287-.17.483-.276 1.065-.582 2.525-1.38 3.704-1.38 3.51 0 5.607 3.038 5.607 5.974 0 2.414-.966 6.117-2.521 9.665z"/>
    </g>
</svg>
