<svg xmlns="http://www.w3.org/2000/svg" xmlns:xlink="http://www.w3.org/1999/xlink" version="1.1" width="256" height="256" viewBox="0 0 256 256" xml:space="preserve">

<defs>
</defs>
<g style="stroke: none; stroke-width: 0; stroke-dasharray: none; stroke-linecap: butt; stroke-linejoin: miter; stroke-miterlimit: 10; fill: none; fill-rule: nonzero; opacity: 1;" transform="translate(1.4065934065934016 1.4065934065934016) scale(2.81 2.81)" >
	<path d="M 78.042 8.778 c -2.237 -2.064 -11.275 -8.625 -31.406 -8.714 c 0 0 -23.74 -1.432 -35.313 9.184 C 4.881 15.692 2.615 25.12 2.376 36.809 C 2.137 48.499 1.827 70.405 22.943 76.344 h 0.02 l -0.013 9.064 c 0 0 -0.135 3.669 2.281 4.418 c 2.923 0.908 4.638 -1.881 7.428 -4.888 c 1.531 -1.65 3.646 -4.075 5.24 -5.928 c 14.442 1.215 25.549 -1.563 26.81 -1.973 c 2.916 -0.945 19.416 -3.06 22.099 -24.964 C 89.579 29.496 85.469 15.215 78.042 8.778 z M 65.906 57.835 c 0 0.009 -0.007 0.026 -0.007 0.034 c -0.93 1.612 -2.11 3.065 -3.497 4.306 c -0.016 0.008 -0.016 0.016 -0.031 0.024 c -1.205 1.007 -2.388 1.579 -3.551 1.717 c -0.171 0.03 -0.345 0.041 -0.519 0.032 c -0.513 0.005 -1.023 -0.073 -1.51 -0.232 l -0.038 -0.055 c -1.791 -0.505 -4.781 -1.769 -9.761 -4.516 c -2.882 -1.571 -5.625 -3.383 -8.201 -5.417 c -1.291 -1.019 -2.522 -2.111 -3.688 -3.271 l -0.124 -0.124 l -0.124 -0.124 l -0.124 -0.124 c -0.042 -0.04 -0.082 -0.082 -0.124 -0.124 c -1.16 -1.166 -2.252 -2.397 -3.271 -3.688 c -2.034 -2.575 -3.846 -5.318 -5.417 -8.199 c -2.747 -4.981 -4.011 -7.968 -4.516 -9.762 l -0.055 -0.038 c -0.158 -0.487 -0.236 -0.997 -0.231 -1.51 c -0.009 -0.173 0.001 -0.347 0.031 -0.519 c 0.145 -1.161 0.718 -2.345 1.719 -3.553 c 0.008 -0.015 0.016 -0.015 0.024 -0.031 c 1.24 -1.387 2.694 -2.567 4.306 -3.495 c 0.008 0 0.024 -0.008 0.034 -0.008 c 1.621 -0.844 3.158 -0.558 4.203 0.675 c 0.008 0.008 2.176 2.611 3.106 3.882 c 0.958 1.348 1.848 2.742 2.666 4.179 c 1.067 1.914 0.398 3.873 -0.65 4.681 l -2.114 1.68 c -1.067 0.862 -0.926 2.462 -0.926 2.462 s 3.131 11.849 14.828 14.835 c 0 0 1.6 0.135 2.462 -0.927 l 1.68 -2.114 c 0.81 -1.048 2.766 -1.717 4.681 -0.65 c 1.435 0.818 2.828 1.708 4.175 2.666 c 1.271 0.935 3.873 3.106 3.881 3.106 C 66.464 54.677 66.75 56.214 65.906 57.835 z M 46.309 24.289 c -0.627 -0.046 -1.098 -0.592 -1.052 -1.219 c 0.046 -0.627 0.594 -1.099 1.219 -1.052 c 4.845 0.355 8.692 2.052 11.433 5.043 c 2.747 3.002 4.091 6.777 3.995 11.22 c -0.013 0.62 -0.52 1.114 -1.138 1.114 c -0.008 0 -0.017 0 -0.025 0 c -0.629 -0.014 -1.127 -0.534 -1.114 -1.163 c 0.084 -3.891 -1.027 -7.042 -3.398 -9.633 C 53.86 26.015 50.615 24.604 46.309 24.289 z M 56.061 36.242 c 0.031 0.628 -0.453 1.162 -1.081 1.193 c -0.019 0.001 -0.038 0.001 -0.057 0.001 c -0.603 0 -1.106 -0.473 -1.136 -1.082 c -0.192 -3.869 -2.011 -5.761 -5.726 -5.955 c -0.628 -0.033 -1.11 -0.568 -1.078 -1.196 c 0.033 -0.628 0.566 -1.112 1.196 -1.078 C 53.084 28.383 55.81 31.189 56.061 36.242 z M 66.754 41.735 c -0.003 0 -0.006 0 -0.009 0 c -0.625 0 -1.134 -0.504 -1.138 -1.13 c -0.052 -6.869 -2.114 -12.336 -6.127 -16.248 c -4.021 -3.92 -9.102 -5.929 -15.103 -5.97 c -0.629 -0.004 -1.135 -0.518 -1.131 -1.146 c 0.004 -0.626 0.513 -1.131 1.138 -1.131 c 0.003 0 0.005 0 0.008 0 c 6.609 0.046 12.22 2.272 16.676 6.617 c 4.465 4.352 6.757 10.362 6.814 17.861 C 67.888 41.216 67.382 41.73 66.754 41.735 z" style="stroke: none; stroke-width: 1; stroke-dasharray: none; stroke-linecap: butt; stroke-linejoin: miter; stroke-miterlimit: 10; fill: #3E3E3E; fill-rule: nonzero; opacity: 1;" transform=" matrix(1 0 0 1 0 0) " stroke-linecap="round" />
</g>
</svg>